PathFileType	4	(X/Y/Z)	Patient5_TMGait_0pt45_1_left_10.trc.trc
DataRate	CameraRate	NumFrames	NumMarkers	Units	OrigDataRate	OrigDataStartFrame	OrigNumFrames
55.776892430279	55.776892430279	4	32	mm	55.776892430279	124	       141
Frame#	Time	R.ASIS			L.ASIS			Chest			R.Shoulder			Neck			L.Shoulder			L.Elbow			L.Wrist			R.Elbow			R.Wrist			L.Thigh.Superior			L.Thigh.Lateral			L.Thigh.Inferior			L.Patella			L.Shank.Superior			L.Shank.Lateral			L.Shank.Inferior			L.Heel			L.Midfoot.Lateral			L.Midfoot.Superior			L.Toe			R.Thigh.Superior			R.Thigh.Lateral			R.Thigh.Inferior			R.Patella			R.Shank.Superior			R.Shank.Lateral			R.Shank.Inferior			R.Heel			R.Midfoot.Lateral			R.Midfoot.Superior			R.Toe			
		X1	Y1	Z1	X2	Y2	Z2	X3	Y3	Z3	X4	Y4	Z4	X5	Y5	Z5	X6	Y6	Z6	X7	Y7	Z7	X8	Y8	Z8	X9	Y9	Z9	X10	Y10	Z10	X11	Y11	Z11	X12	Y12	Z12	X13	Y13	Z13	X14	Y14	Z14	X15	Y15	Z15	X16	Y16	Z16	X17	Y17	Z17	X18	Y18	Z18	X19	Y19	Z19	X20	Y20	Z20	X21	Y21	Z21	X22	Y22	Z22	X23	Y23	Z23	X24	Y24	Z24	X25	Y25	Z25	X26	Y26	Z26	X27	Y27	Z27	X28	Y28	Z28	X29	Y29	Z29	X30	Y30	Z30	X31	Y31	Z31	X32	Y32	Z32	

124	17.355214285714	922.063089906011	956.955265399694	599.881292786491	915.376626886775	945.286228166275	362.138253409863	1026.670435462210	1407.425290267626	490.863433601376	938.807381568278	1477.142782251356	659.269955814075	909.039649203895	1540.583846914353	476.991790793090	968.964836409600	1481.360172565877	295.530256778283	873.609372039526	1168.822937628427	167.596784783508	965.979518690504	894.330095579395	186.287263036998	863.919818622225	1167.438526236690	819.308298076209	1067.793762645099	973.514556947089	746.882913536845	975.602856162820	757.619805876462	338.531036249008	930.370814239013	671.775852488942	294.716915050438	1022.006262839969	641.480447028265	357.674102782353	1067.957306759962	530.855499214813	357.184328903947	1044.115535344649	419.744517670624	375.880453165968	987.493270199962	340.961140736775	299.386434026274	1039.725868629672	292.014842644084	380.266348225495	957.548285590226	46.529559976664	374.747886650757	1045.415159899362	32.349777910665	310.617079809605	1135.817264525449	104.804549661434	350.666213344613	1245.064654767087	77.490394152249	349.671854119367	894.125660558256	724.537492882686	613.243354599984	792.809428600365	660.478912885276	662.173963290955	861.737575243770	596.369437087228	587.695891329743	846.223268605536	501.942994845456	612.546267732919	795.443313443689	415.195454150284	572.133735918810	718.576223077898	352.027032739655	650.339827774934	770.150286403908	278.453004122943	568.724896141330	636.649519922006	53.442572373303	527.097850094538	711.730192925240	25.064112584155	603.737552412034	818.216584041547	87.500484522842	583.621781796188	922.163801987411	44.957681176668	588.713605155763	
125	17.373142857143	923.867908225984	956.833064733080	597.001340954284	920.241484275587	944.875889248917	360.085643817942	1026.536484993700	1408.129641242023	487.247608477795	936.122352076976	1478.052044416477	654.316390339587	908.887582707821	1540.605129552680	471.414133409235	970.675818383835	1480.895958387180	290.854784741498	878.132072696726	1167.404098914001	163.239191756346	969.873488993380	892.898814109461	185.003851353735	861.090051392601	1168.200557068729	814.223699323599	1065.334399955156	973.849305479109	743.968290184505	980.152385059759	755.343408213102	338.319044724584	933.362859141612	669.248776197961	295.637943591641	1023.866914982888	638.174215868950	359.848230974475	1066.960477312987	527.815933056130	362.001725501184	1042.685252618773	416.530983781394	379.475008363962	988.504118016084	338.051290621293	301.205162077305	1038.111846483410	288.960412059807	383.021632025604	955.197303477695	46.491250787464	375.179011645097	1043.912236737159	30.233167416634	312.664608717586	1134.707297113242	100.764772869230	355.035511752369	1243.583289045932	71.199744144438	356.226672113175	895.117365648358	724.220189413371	611.264477048322	792.821652651954	660.692858973628	659.481811083762	861.947605636349	595.891485981755	585.919984674664	845.265641019174	501.248836411485	610.972364047386	793.410066236552	414.364278361928	570.537027759245	714.914006151165	352.854478502302	648.499314085680	765.786226381114	278.069138490004	567.639630257585	628.644494892891	53.690844294072	527.007068468869	703.735768657436	25.215323240813	603.604502348752	810.269462036141	87.600329830384	583.629131975776	914.136732848872	44.778744196946	588.701054900433	
126	17.391071428571	925.641129259780	957.179596669773	594.450012502985	925.193670051105	945.120352573958	357.635116243091	1026.549057970427	1409.416593332415	483.456579058163	933.403225996589	1479.474885220122	649.243951969863	908.829859954704	1541.128574537403	465.668272136870	972.442819988146	1480.951566849947	286.032895375771	882.971493985521	1166.480165144302	158.713237141377	974.279538281539	892.057817529835	183.561857775231	857.377542317280	1169.398240816537	808.485207374091	1062.589434367737	975.114472014295	741.036197610032	985.458320150428	754.588503362244	338.538789905936	937.919694041564	668.365885547163	296.113965843050	1026.777064260969	636.372980797754	361.975490675530	1067.010200640477	525.518163855870	366.191943443245	1041.250703023604	413.959508822700	382.188914036489	989.136336895879	336.358122538234	301.806998460407	1035.100097281187	286.588663875883	384.832005185114	949.069927686868	47.207550564865	375.061107838605	1038.408437425854	28.796549139802	313.846986823024	1130.086334635146	97.097476535909	358.231620424839	1238.473674014910	64.780855119809	361.252282508240	896.582022676911	724.108112493878	608.988468506926	793.384317823644	661.124441249671	656.639898268989	862.761644759428	595.665450999582	583.963821707019	844.952682927834	500.786737391649	609.287054717472	791.944289721089	413.642583893338	568.846135982465	711.768519195915	353.938614091829	646.563354967480	761.823562529125	277.878521199123	566.500408224124	620.752739714701	54.324518634566	526.897716267221	695.816801376763	25.556243991688	603.427406867484	802.506767324727	87.747752477102	583.677175852533	906.170510095523	44.545107292256	588.698642480706	
127	17.409000000000	927.228413338904	958.041714796783	592.169561590356	930.043515266708	945.982383898356	354.769316408610	1026.768657039282	1411.222198694755	479.557160673999	930.855334669120	1481.396467217240	644.136493134699	908.951510639207	1542.169343994522	459.876513862395	974.340622570656	1481.527267586675	281.168665021331	888.011156042607	1166.106084576789	154.129550431648	979.177888496853	891.883580150494	181.872833763370	852.822344821617	1171.025708909847	802.082866100966	1059.538842397404	977.236648989541	738.094004014901	991.004633401039	755.100310515281	338.769764432092	943.369056159018	668.879668539459	295.863441178122	1030.252362010318	635.836744637713	363.525132180079	1067.747193076566	523.962011229455	369.164311664003	1039.876622115205	412.105239586517	383.703484272749	989.358079828065	335.649933041655	301.169241241501	1031.272796946179	284.934685317839	385.559657864838	940.738967551576	48.165827730157	374.539964764424	1030.461701512838	27.897435587151	314.222483733361	1123.200809934930	94.155974691516	360.114918748666	1231.102877333583	59.142333519589	364.490937981250	898.294509569304	724.328627792686	606.453594374021	794.318992881542	661.879233308522	653.708583704017	864.024173349787	595.802746930256	581.907122794326	845.201080525127	500.671944133693	607.585168707362	790.959632887699	413.134560708743	567.147264309671	709.068633298475	355.360862317161	644.598505853319	758.219427029820	277.988270960709	565.378730655468	613.031429249795	55.549117370813	526.767609773660	687.983289561036	26.192580765472	603.209065666929	794.995258066886	87.944451107968	583.793059520914	898.271856344789	44.258119454872	588.708088662533	
